<?xml version="1.0" encoding="utf-8"?>
<!-- Generator: Adobe Illustrator 23.0.0, SVG Export Plug-In . SVG Version: 6.00 Build 0)  -->
<svg version="1.1" id="레이어_1" xmlns="http://www.w3.org/2000/svg" xmlns:xlink="http://www.w3.org/1999/xlink" x="0px"
	 y="0px" viewBox="0 0 561.4 85.6" style="enable-background:new 0 0 561.4 85.6;" xml:space="preserve">
<style type="text/css">
	.st0{fill:#FFFFFF;}
</style>
<path class="st0" d="M10.1,6.3C12,6.1,14,6,15.9,6c0.5,0,2.2-0.1-4.2,3.8c0.7,2,2.7,5.3,2.8,6.3c0.3,2.1-1.9,0.2-6-2.9
	c-1.9,2.3-4,5.2-4.5,5.3c-0.7,0.1-0.2-4,1-7.3c-1.2-0.5-2.3-1-3.4-1.5c-2.5-1.4-3-2.6,3.8-2.6c0.7-2,1.3-5.3,2.1-5.5
	S9.1,3.2,10.1,6.3z"/>
<path class="st0" d="M105.3,54.9c1.6,0.2,3.3,0.5,4.9,1c0.4,0.1,1.9,0.4-4.2,2.3c0.2,1.8,1.1,4.9,1,5.8c-0.2,1.7-1.6-0.3-4.4-3.6
	c-2,1.5-4.3,3.5-4.8,3.4c-0.6-0.1,0.6-3.3,2.3-5.8c-0.9-0.6-1.7-1.2-2.4-1.9c-1.8-1.7-2-2.7,3.6-1.3c1-1.5,2.1-4.1,2.8-4.1
	S105.1,52.1,105.3,54.9z"/>
<path class="st0" d="M97.1,20.9c1.1,0.3,2.2,0.6,3.2,1c0.3,0.1,1.2,0.4-3,1.2c0,1.2,0.4,3.4,0.3,4c-0.3,1.2-1-0.3-2.7-2.7
	c-1.5,0.9-3.2,2-3.5,2s0.7-2.2,2-3.7c-0.5-0.5-1-1-1.5-1.5c-1.1-1.3-1.1-2,2.6-0.6c0.8-1,1.8-2.6,2.2-2.6S97.2,19,97.1,20.9z"/>
<path class="st0" d="M9.9,21.9c0.7-0.7,4.1,0.6,8.7,1.7c8.7,2.2,21.2,5.1,32.3,6.3c10.4,1,20.8,1.4,31.3,1.2c1.6,0,5-0.2,5,0.9
	c0,0.7-1.5,1.2-4,1.6c-3.1,0.5-6.6,1-8.8,1.3c-1.9,0.2-1,0.7-0.1,1c1.1,0.3,2.6,0.7,3.6,1.1s1.5,0.5,1.5,1s-0.5,0.7-1.3,1
	S77,39.3,77,39.6s1.5,0.5,2.9,0.7c1.2,0.2,2.3,0.5,3.5,0.8c0.4,0.1,0.6,0.3,0.6,0.5s-0.2,0.5-0.9,0.7c-2,0.7-4,1-4,1.4
	s1.5,0.6,3.5,0.9c3,0.4,9.6,1.5,11.1,1.7c0.6,0.1,0.9,0.2,0.8,0.4s-0.6,0.3-1.3,0.4c-1.5,0.2-9,0.3-12.4,0.2
	c-21-1-47.3-6.4-67.7-19.1c-3.5-2.2-2.8-3.5-3-4.2C10,23.1,9.5,22.4,9.9,21.9z"/>
<path class="st0" d="M91.5,79c-1.3-3.1-3-6-5-8.7c-2.7-3.6-4.8-5.6-8.6-7C70.1,60.5,54.4,61,48,59.9s-13-3.3-15-9.6
	c-2.2-6.8-0.3-17.8,5-25.8c6.6-10.2,14.9-9.3,33.8-9.7S92.4,2.6,92.4,2.6C88.2,2.4,74.2,1.5,63,0.3s-17.5,1-22.9,4.3
	S26.5,17.2,23.5,28.9C17.1,54.2,27.4,65.8,39.9,71c8.8,3.7,22.7,7.7,39.9,11c3.6,0.7,6.2,1.1,8.7,1.5C90.1,83.6,93.6,84.1,91.5,79z"
	/>
<path class="st0" d="M32.7,37.7c0.7-3.5,1.8-6.9,3.4-10.1c-4-0.8-7.9-1.6-11.4-2.5c-0.4,1.2-0.8,2.5-1.2,3.8c-0.4,1.5-0.7,3-1,4.5
	C25.8,35,29.2,36.4,32.7,37.7z"/>
<path class="st0" d="M36.1,27.6c0.5-1.1,1.1-2.1,1.8-3.1c6.6-10.2,14.9-9.3,33.8-9.7S92.3,2.7,92.3,2.7c-4.2-0.2-18.2-1.1-29.4-2.3
	s-17.4,1-22.8,4.2c-4.8,2.9-11.8,10.6-15.4,20.5C28.3,26,32.1,26.8,36.1,27.6z"/>
<path class="st0" d="M180.3,79.8h-57.9v-2.9c1.9,0.1,3.8-0.1,5.6-0.5c1.1-0.2,2.2-0.8,2.9-1.7c0.7-1,1.1-2.2,1.2-3.4
	c0.2-2.1,0.3-4.3,0.3-6.4V17.5c0.1-2.1-0.2-4.3-0.8-6.3c-0.4-1.3-1.5-2.2-2.8-2.5c-2.2-0.5-4.4-0.8-6.6-0.8V5h52.2v16.4h-2.1
	c-0.3-2.1-0.9-4.2-1.8-6.1c-0.8-1.6-1.9-3-3.3-4.1c-1.5-1-3.2-1.7-5-2.1c-2.3-0.5-4.6-0.7-7-0.7h-12.5v30.2H157
	c3.8,0,6.1-0.9,7.1-2.6c1-2.1,1.7-4.4,1.9-6.7h2.1v24.4H166c0.1-2-0.1-4-0.6-6c-0.3-1.2-1-2.3-2-3.1c-1-0.7-2.1-1.1-3.3-1.2
	c-1.3-0.1-3.2-0.2-5.7-0.2h-11.5v18.2c-0.1,3.2,0.1,6.4,0.6,9.5c0.3,1.8,1.4,3.3,2.9,4.2c1.5,0.8,4.1,1.2,7.6,1.2h6.5
	c3.4-0.1,6.7-0.5,10-1.3c2.1-0.6,3.8-2,4.9-3.8c1.3-2.5,2.1-5.3,2.3-8.2h2.6L180.3,79.8z"/>
<path class="st0" d="M189.1,79.8v-2.9c3.2,0,5.6-0.5,7.2-1.6s2.4-2.9,2.4-5.6V15.6c0.1-1.8-0.3-3.6-1.2-5.1c-0.7-1-1.7-1.8-2.9-2.1
	c-1.8-0.4-3.7-0.6-5.6-0.6V5h29.7v2.9c-1.9,0-3.7,0.2-5.5,0.6c-1.2,0.3-2.3,1-3,2.1c-0.9,1.6-1.3,3.3-1.1,5.1v49.5
	c-0.1,1.8,0.1,3.5,0.6,5.2c0.3,1.3,1.2,2.5,2.3,3.3c1.5,1.1,3.2,1.8,5.1,2c3,0.5,5.9,0.7,8.9,0.6c4.2,0,8.6-0.4,10.9-1.2
	c2.1-0.7,3.9-2.1,5-4.1c1.2-2.5,1.9-5.2,1.9-7.9h2.9v16.8L189.1,79.8z"/>
<path class="st0" d="M309.4,5v2.7c-1.7,0-3.3,0.5-4.7,1.5c-1.6,1.4-3,3-4.2,4.8l-20.5,27.6v27.6c-0.1,1.8,0.3,3.6,1.2,5.2
	c0.7,1,1.8,1.7,3,2c1.8,0.3,3.7,0.5,5.6,0.5v2.9H260v-2.9c3.5-0.1,6-0.5,7.5-1.4s2.2-3,2.2-6.4V43.4l-22.3-30.8
	c-0.7-1.1-1.6-2.2-2.6-3.1c-0.6-0.5-1.4-0.9-2.1-1.1c-0.8-0.2-2.5-0.4-5.2-0.7V5h27.8v2.7c-4,0-6,0.8-6,2.2c0,1.1,1.2,3.4,3.6,6.7
	l14.9,21.1l14-19.2c0.4-0.5,0.9-1.3,1.7-2.3c0.7-0.9,1.3-1.9,1.8-2.9c0.4-0.7,0.6-1.5,0.6-2.4c0-1.5-0.5-2.4-1.5-2.8
	c-2-0.4-4-0.6-6-0.5V5H309.4z"/>
<path class="st0" d="M315.7,77.7L313.6,62h2.5c1,4.3,3.1,8.2,6.2,11.3c2.9,3,6.9,4.7,11,4.7c2.7,0,5.4-0.6,7.8-1.9
	c2.3-1.2,4.1-2.9,5.4-5.1c1.4-2.2,2-4.8,2-7.4c0-4.3-1.3-7.7-3.9-9.9c-3.7-3-7.8-5.6-12.1-7.7c-4.6-2.2-8.9-5.2-12.5-8.8
	c-2.8-3-4.2-7.4-4.2-13c-0.1-4,1-8,3.1-11.5c2-3.2,4.9-5.7,8.3-7.2c3.8-1.7,8-2.5,12.2-2.4c1.4,0,2.9,0.1,4.3,0.3
	c1.5,0.2,3,0.4,4.6,0.8s3.1,0.5,4.6,0.8l1.8,13.5h-2.6c-0.4-3.4-2-6.5-4.5-8.7c-2.7-2.2-6.2-3.3-9.7-3.1c-2.5,0-4.9,0.6-7,1.8
	c-2,1.2-3.6,2.9-4.6,5c-1.1,2.2-1.6,4.6-1.6,7c0,4.4,1.3,7.7,4,9.9s6.9,4.8,12.6,7.7s10.1,5.8,13,8.8s4.4,7.2,4.4,12.8
	c0.1,3.2-0.7,6.3-2.1,9.1c-1.4,2.7-3.4,5.1-5.8,6.9c-2.5,1.9-5.4,3.4-8.4,4.3c-3.1,1-6.3,1.5-9.6,1.5
	C326.8,81.6,321,80.3,315.7,77.7z"/>
<path class="st0" d="M399.4,5v2.9c-1.9,0-3.7,0.2-5.6,0.6c-1.2,0.3-2.3,1-3,2.1c-0.9,1.6-1.3,3.3-1.2,5.1v53.6
	c-0.1,1.8,0.3,3.6,1.2,5.2c0.7,1,1.7,1.7,3,2c1.8,0.3,3.7,0.5,5.6,0.5v2.9h-29.9v-2.9c3.5-0.1,6-0.5,7.5-1.4s2.3-3,2.3-6.4V15.6
	c0-3.4-0.8-5.5-2.3-6.4s-4-1.3-7.5-1.4V5H399.4z"/>
<path class="st0" d="M437.7,15.7l11.4,31.6h-22l10.4-31.6H437.7 M419.4,57.3c-2.2,6.6-3.7,10.6-4.3,12c-0.6,1.6-1.5,3.2-2.5,4.6
	c-0.7,0.9-1.6,1.6-2.7,2.1c-1.7,0.5-3.4,0.9-5.1,1v3h25.4v-3h-2.4c-1.3,0-2.6-0.1-3.9-0.3c-0.9-0.2-1.8-0.6-2.4-1.3
	c-0.7-1-1-2.2-0.9-3.5c0-1.7,0.2-3.4,0.7-5c0.5-1.8,1.1-4.3,2.2-7.6l2.3-7.5h25l5.3,15.5c0.8,1.9,1.4,4,1.6,6.1c0,2.4-2,3.6-5.9,3.6
	h-1.9v3h27.8v-3c-4,0-6.8-1-8.3-3c-0.7-1.1-1.3-2.3-1.8-3.6c-0.7-1.8-1.4-3.8-2.2-6.1s-1.5-4.3-2.1-6L443,2.1h-5.7L419.4,57.3z"/>
<path class="st0" d="M547.2,63.3V20.8c0.1-2.6-0.2-5.2-1-7.7c-0.6-1.8-2-3.2-3.8-3.9c-2.6-0.9-5.4-1.3-8.1-1.3V5h27.1v2.9
	c-1.5,0-3,0.1-4.5,0.3c-1.1,0.2-2.1,0.7-3,1.4c-0.9,0.9-1.6,2-1.9,3.3c-0.5,2-0.7,4-0.6,6.1v61.9H549l-52.2-61.4v39.8
	c-0.1,3,0.1,6.1,0.4,9.1c0.1,1.9,0.7,3.7,1.7,5.3c0.9,1.3,2.2,2.2,3.7,2.6c2.2,0.6,4.6,0.8,6.9,0.7v2.9h-28.3v-2.9
	c2.2,0.1,4.3-0.2,6.4-0.7c1.7-0.6,3-1.9,3.6-3.6c1-1.9,1.4-5.1,1.4-9.4V20.4c0-4.5-1-7.7-3.1-9.6s-5.4-2.9-10.1-2.9V5h18.4
	L547.2,63.3z"/>
</svg>
