<svg version="1.1" id="레이어_1" xmlns="http://www.w3.org/2000/svg" x="0" y="0" viewBox="0 0 561.4 85.6" xml:space="preserve"><style>.st0{fill:#9d7692}.st1{fill:#7c9ac0}.st4{fill:#6f7271}</style><path class="st0" d="M10.1 6.3C12 6.1 14 6 15.9 6c.5 0 2.2-.1-4.2 3.8.7 2 2.7 5.3 2.8 6.3.3 2.1-1.9.2-6-2.9-1.9 2.3-4 5.2-4.5 5.3-.7.1-.2-4 1-7.3-1.2-.5-2.3-1-3.4-1.5-2.5-1.4-3-2.6 3.8-2.6.7-2 1.3-5.3 2.1-5.5s1.6 1.6 2.6 4.7z"/><path class="st1" d="M105.3 54.9c1.6.2 3.3.5 4.9 1 .4.1 1.9.4-4.2 2.3.2 1.8 1.1 4.9 1 5.8-.2 1.7-1.6-.3-4.4-3.6-2 1.5-4.3 3.5-4.8 3.4-.6-.1.6-3.3 2.3-5.8-.9-.6-1.7-1.2-2.4-1.9-1.8-1.7-2-2.7 3.6-1.3 1-1.5 2.1-4.1 2.8-4.1s1 1.4 1.2 4.2z"/><path class="st0" d="M97.1 20.9c1.1.3 2.2.6 3.2 1 .3.1 1.2.4-3 1.2 0 1.2.4 3.4.3 4-.3 1.2-1-.3-2.7-2.7-1.5.9-3.2 2-3.5 2s.7-2.2 2-3.7l-1.5-1.5c-1.1-1.3-1.1-2 2.6-.6.8-1 1.8-2.6 2.2-2.6s.5 1 .4 2.9zM9.9 21.9c.7-.7 4.1.6 8.7 1.7 8.7 2.2 21.2 5.1 32.3 6.3 10.4 1 20.8 1.4 31.3 1.2 1.6 0 5-.2 5 .9 0 .7-1.5 1.2-4 1.6-3.1.5-6.6 1-8.8 1.3-1.9.2-1 .7-.1 1 1.1.3 2.6.7 3.6 1.1s1.5.5 1.5 1-.5.7-1.3 1-1.1.3-1.1.6 1.5.5 2.9.7c1.2.2 2.3.5 3.5.8.4.1.6.3.6.5s-.2.5-.9.7c-2 .7-4 1-4 1.4s1.5.6 3.5.9c3 .4 9.6 1.5 11.1 1.7.6.1.9.2.8.4s-.6.3-1.3.4c-1.5.2-9 .3-12.4.2-21-1-47.3-6.4-67.7-19.1-3.5-2.2-2.8-3.5-3-4.2-.1-.9-.6-1.6-.2-2.1z"/><path class="st1" d="M91.5 79c-1.3-3.1-3-6-5-8.7-2.7-3.6-4.8-5.6-8.6-7-7.8-2.8-23.5-2.3-29.9-3.4s-13-3.3-15-9.6c-2.2-6.8-.3-17.8 5-25.8 6.6-10.2 14.9-9.3 33.8-9.7S92.4 2.6 92.4 2.6C88.2 2.4 74.2 1.5 63 .3s-17.5 1-22.9 4.3-13.6 12.6-16.6 24.3C17.1 54.2 27.4 65.8 39.9 71c8.8 3.7 22.7 7.7 39.9 11 3.6.7 6.2 1.1 8.7 1.5 1.6.1 5.1.6 3-4.5z"/><path d="M32.7 37.7c.7-3.5 1.8-6.9 3.4-10.1-4-.8-7.9-1.6-11.4-2.5-.4 1.2-.8 2.5-1.2 3.8-.4 1.5-.7 3-1 4.5 3.3 1.6 6.7 3 10.2 4.3z" fill="#746661"/><path d="M36.1 27.6c.5-1.1 1.1-2.1 1.8-3.1 6.6-10.2 14.9-9.3 33.8-9.7S92.3 2.7 92.3 2.7C88.1 2.5 74.1 1.6 62.9.4s-17.4 1-22.8 4.2c-4.8 2.9-11.8 10.6-15.4 20.5 3.6.9 7.4 1.7 11.4 2.5z" fill="#7d9c91"/><path class="st4" d="M180.3 79.8h-57.9v-2.9c1.9.1 3.8-.1 5.6-.5 1.1-.2 2.2-.8 2.9-1.7.7-1 1.1-2.2 1.2-3.4.2-2.1.3-4.3.3-6.4V17.5c.1-2.1-.2-4.3-.8-6.3-.4-1.3-1.5-2.2-2.8-2.5-2.2-.5-4.4-.8-6.6-.8V5h52.2v16.4h-2.1c-.3-2.1-.9-4.2-1.8-6.1-.8-1.6-1.9-3-3.3-4.1-1.5-1-3.2-1.7-5-2.1-2.3-.5-4.6-.7-7-.7h-12.5v30.2H157c3.8 0 6.1-.9 7.1-2.6 1-2.1 1.7-4.4 1.9-6.7h2.1v24.4H166c.1-2-.1-4-.6-6-.3-1.2-1-2.3-2-3.1-1-.7-2.1-1.1-3.3-1.2-1.3-.1-3.2-.2-5.7-.2h-11.5v18.2c-.1 3.2.1 6.4.6 9.5.3 1.8 1.4 3.3 2.9 4.2 1.5.8 4.1 1.2 7.6 1.2h6.5c3.4-.1 6.7-.5 10-1.3 2.1-.6 3.8-2 4.9-3.8 1.3-2.5 2.1-5.3 2.3-8.2h2.6v16.8zM189.1 79.8v-2.9c3.2 0 5.6-.5 7.2-1.6s2.4-2.9 2.4-5.6V15.6c.1-1.8-.3-3.6-1.2-5.1-.7-1-1.7-1.8-2.9-2.1-1.8-.4-3.7-.6-5.6-.6V5h29.7v2.9c-1.9 0-3.7.2-5.5.6-1.2.3-2.3 1-3 2.1-.9 1.6-1.3 3.3-1.1 5.1v49.5c-.1 1.8.1 3.5.6 5.2.3 1.3 1.2 2.5 2.3 3.3 1.5 1.1 3.2 1.8 5.1 2 3 .5 5.9.7 8.9.6 4.2 0 8.6-.4 10.9-1.2 2.1-.7 3.9-2.1 5-4.1 1.2-2.5 1.9-5.2 1.9-7.9h2.9v16.8l-57.6-.1zM309.4 5v2.7c-1.7 0-3.3.5-4.7 1.5-1.6 1.4-3 3-4.2 4.8L280 41.6v27.6c-.1 1.8.3 3.6 1.2 5.2.7 1 1.8 1.7 3 2 1.8.3 3.7.5 5.6.5v2.9H260v-2.9c3.5-.1 6-.5 7.5-1.4s2.2-3 2.2-6.4V43.4l-22.3-30.8c-.7-1.1-1.6-2.2-2.6-3.1-.6-.5-1.4-.9-2.1-1.1-.8-.2-2.5-.4-5.2-.7V5h27.8v2.7c-4 0-6 .8-6 2.2 0 1.1 1.2 3.4 3.6 6.7l14.9 21.1 14-19.2c.4-.5.9-1.3 1.7-2.3.7-.9 1.3-1.9 1.8-2.9.4-.7.6-1.5.6-2.4 0-1.5-.5-2.4-1.5-2.8-2-.4-4-.6-6-.5V5h21zM315.7 77.7L313.6 62h2.5c1 4.3 3.1 8.2 6.2 11.3 2.9 3 6.9 4.7 11 4.7 2.7 0 5.4-.6 7.8-1.9 2.3-1.2 4.1-2.9 5.4-5.1 1.4-2.2 2-4.8 2-7.4 0-4.3-1.3-7.7-3.9-9.9-3.7-3-7.8-5.6-12.1-7.7-4.6-2.2-8.9-5.2-12.5-8.8-2.8-3-4.2-7.4-4.2-13-.1-4 1-8 3.1-11.5 2-3.2 4.9-5.7 8.3-7.2 3.8-1.7 8-2.5 12.2-2.4 1.4 0 2.9.1 4.3.3 1.5.2 3 .4 4.6.8s3.1.5 4.6.8l1.8 13.5h-2.6c-.4-3.4-2-6.5-4.5-8.7-2.7-2.2-6.2-3.3-9.7-3.1-2.5 0-4.9.6-7 1.8-2 1.2-3.6 2.9-4.6 5-1.1 2.2-1.6 4.6-1.6 7 0 4.4 1.3 7.7 4 9.9s6.9 4.8 12.6 7.7 10.1 5.8 13 8.8 4.4 7.2 4.4 12.8c.1 3.2-.7 6.3-2.1 9.1-1.4 2.7-3.4 5.1-5.8 6.9-2.5 1.9-5.4 3.4-8.4 4.3-3.1 1-6.3 1.5-9.6 1.5-6 .1-11.8-1.2-17.1-3.8zM399.4 5v2.9c-1.9 0-3.7.2-5.6.6-1.2.3-2.3 1-3 2.1-.9 1.6-1.3 3.3-1.2 5.1v53.6c-.1 1.8.3 3.6 1.2 5.2.7 1 1.7 1.7 3 2 1.8.3 3.7.5 5.6.5v2.9h-29.9V77c3.5-.1 6-.5 7.5-1.4s2.3-3 2.3-6.4V15.6c0-3.4-.8-5.5-2.3-6.4s-4-1.3-7.5-1.4V5h29.9zM437.7 15.7l11.4 31.6h-22l10.4-31.6h.2m-18.3 41.6c-2.2 6.6-3.7 10.6-4.3 12-.6 1.6-1.5 3.2-2.5 4.6-.7.9-1.6 1.6-2.7 2.1-1.7.5-3.4.9-5.1 1v3h25.4v-3h-2.4c-1.3 0-2.6-.1-3.9-.3-.9-.2-1.8-.6-2.4-1.3-.7-1-1-2.2-.9-3.5 0-1.7.2-3.4.7-5 .5-1.8 1.1-4.3 2.2-7.6l2.3-7.5h25l5.3 15.5c.8 1.9 1.4 4 1.6 6.1 0 2.4-2 3.6-5.9 3.6h-1.9v3h27.8v-3c-4 0-6.8-1-8.3-3-.7-1.1-1.3-2.3-1.8-3.6-.7-1.8-1.4-3.8-2.2-6.1s-1.5-4.3-2.1-6L443 2.1h-5.7l-17.9 55.2zM547.2 63.3V20.8c.1-2.6-.2-5.2-1-7.7-.6-1.8-2-3.2-3.8-3.9-2.6-.9-5.4-1.3-8.1-1.3V5h27.1v2.9c-1.5 0-3 .1-4.5.3-1.1.2-2.1.7-3 1.4-.9.9-1.6 2-1.9 3.3-.5 2-.7 4-.6 6.1v61.9H549l-52.2-61.4v39.8c-.1 3 .1 6.1.4 9.1.1 1.9.7 3.7 1.7 5.3.9 1.3 2.2 2.2 3.7 2.6 2.2.6 4.6.8 6.9.7v2.9h-28.3V77c2.2.1 4.3-.2 6.4-.7 1.7-.6 3-1.9 3.6-3.6 1-1.9 1.4-5.1 1.4-9.4V20.4c0-4.5-1-7.7-3.1-9.6s-5.4-2.9-10.1-2.9V5h18.4l49.4 58.3z"/></svg>